<svg width="24" height="25" viewBox="0 0 24 25" fill="none" xmlns="http://www.w3.org/2000/svg">
<path fill-rule="evenodd" clip-rule="evenodd" d="M10 3.30005H11.1429C14.3782 3.30005 17.0902 5.5874 17.8118 8.66439C17.9348 9.18912 18 9.73682 18 10.3C18 14.166 14.93 17.3 11.1429 17.3H6.96161H4.28571C3.02335 17.3 2 16.2554 2 14.9667V11.4667C2 6.95639 5.58172 3.30005 10 3.30005ZM11.4286 19.3H8.05814C9.29491 20.5372 10.9888 21.3 12.8571 21.3H17.0384H19.7143C20.9766 21.3 22 20.2554 22 18.9667V15.4667C22 13.3939 21.2435 11.5015 19.997 10.0614C19.999 10.1407 20 10.2202 20 10.3C20 15.2706 16.1624 19.3 11.4286 19.3Z" fill="white"/>
</svg>
