<svg width="17" height="21" viewBox="0 0 17 21" fill="none" xmlns="http://www.w3.org/2000/svg">
<path fill-rule="evenodd" clip-rule="evenodd" d="M2.22281 16.3003H13.7772C15.6056 16.3003 16.6492 14.4612 15.5522 13.1724C15.0666 12.6019 14.7673 11.9252 14.6867 11.2156L14.5227 9.77001C14.3512 9.78985 14.1767 9.80005 13.9999 9.80005C11.5147 9.80005 9.49994 7.78533 9.49994 5.30005C9.49994 4.32918 9.8074 3.43012 10.3303 2.69492C10.3102 2.68784 10.2901 2.68086 10.2699 2.67395V2.57024C10.2699 1.31658 9.25366 0.300293 8 0.300293C6.74634 0.300293 5.73005 1.31658 5.73005 2.57024V2.67395C3.58766 3.40749 2.0016 5.15093 1.76046 7.27548L1.31328 11.2156C1.23274 11.9252 0.933441 12.6019 0.447786 13.1724C-0.649243 14.4612 0.394434 16.3003 2.22281 16.3003ZM17 5.30005C17 6.9569 15.6569 8.30005 14 8.30005C12.3431 8.30005 11 6.9569 11 5.30005C11 3.64319 12.3431 2.30005 14 2.30005C15.6569 2.30005 17 3.64319 17 5.30005ZM8 20.3003C9.35652 20.3003 10.5147 19.4995 10.9721 18.3718C10.9912 18.3248 11 18.2743 11 18.2235C11 17.9897 10.8104 17.8 10.5765 17.8H5.42349C5.1896 17.8 5 17.9897 5 18.2235C5 18.2743 5.00883 18.3248 5.0279 18.3718C5.48528 19.4995 6.64348 20.3003 8 20.3003Z" fill="white"/>
</svg>
